<mxfile host="app.diagrams.net" agent="Mozilla/5.0 (Windows NT 10.0; Win64; x64) AppleWebKit/537.36 (KHTML, like Gecko) Chrome/140.0.0.0 Safari/537.36 Edg/140.0.0.0" version="28.2.0">
  <diagram name="ページ1" id="CRvg9mBoOP2-42MSRW3z">
    <mxGraphModel dx="2124" dy="845" grid="1" gridSize="10" guides="1" tooltips="1" connect="1" arrows="1" fold="1" page="1" pageScale="1" pageWidth="827" pageHeight="1169" math="0" shadow="0">
      <root>
        <mxCell id="0" />
        <mxCell id="1" parent="0" />
        <mxCell id="Q2ZwilokbGeyutuiUH2V-2" value="ドメインモデル" style="text;html=1;align=center;verticalAlign=middle;whiteSpace=wrap;rounded=0;" vertex="1" parent="1">
          <mxGeometry x="20" y="20" width="183.33" height="50" as="geometry" />
        </mxCell>
        <mxCell id="Q2ZwilokbGeyutuiUH2V-3" value="乗り物" style="rounded=0;whiteSpace=wrap;html=1;" vertex="1" parent="1">
          <mxGeometry x="150" y="100" width="140" height="60" as="geometry" />
        </mxCell>
        <mxCell id="Q2ZwilokbGeyutuiUH2V-4" value="車" style="rounded=0;whiteSpace=wrap;html=1;" vertex="1" parent="1">
          <mxGeometry x="80" y="240" width="50" height="60" as="geometry" />
        </mxCell>
        <mxCell id="Q2ZwilokbGeyutuiUH2V-5" value="船" style="rounded=0;whiteSpace=wrap;html=1;" vertex="1" parent="1">
          <mxGeometry x="170" y="240" width="60" height="60" as="geometry" />
        </mxCell>
        <mxCell id="Q2ZwilokbGeyutuiUH2V-6" value="飛行機" style="rounded=0;whiteSpace=wrap;html=1;" vertex="1" parent="1">
          <mxGeometry x="270" y="240" width="120" height="60" as="geometry" />
        </mxCell>
        <mxCell id="Q2ZwilokbGeyutuiUH2V-11" value="" style="endArrow=block;html=1;rounded=0;strokeColor=light-dark(#000000,#EDEDED);endFill=0;entryX=0.75;entryY=1;entryDx=0;entryDy=0;" edge="1" parent="1" target="Q2ZwilokbGeyutuiUH2V-3">
          <mxGeometry width="50" height="50" relative="1" as="geometry">
            <mxPoint x="320" y="240" as="sourcePoint" />
            <mxPoint x="390" y="220" as="targetPoint" />
          </mxGeometry>
        </mxCell>
        <mxCell id="Q2ZwilokbGeyutuiUH2V-12" value="" style="endArrow=block;html=1;rounded=0;strokeColor=light-dark(#000000,#EDEDED);endFill=0;entryX=0.5;entryY=1;entryDx=0;entryDy=0;exitX=0.5;exitY=0;exitDx=0;exitDy=0;" edge="1" parent="1" source="Q2ZwilokbGeyutuiUH2V-5" target="Q2ZwilokbGeyutuiUH2V-3">
          <mxGeometry width="50" height="50" relative="1" as="geometry">
            <mxPoint x="385" y="210" as="sourcePoint" />
            <mxPoint x="320" y="130" as="targetPoint" />
          </mxGeometry>
        </mxCell>
        <mxCell id="Q2ZwilokbGeyutuiUH2V-13" value="" style="endArrow=block;html=1;rounded=0;strokeColor=light-dark(#000000,#EDEDED);endFill=0;exitX=0.5;exitY=0;exitDx=0;exitDy=0;" edge="1" parent="1" source="Q2ZwilokbGeyutuiUH2V-4" target="Q2ZwilokbGeyutuiUH2V-3">
          <mxGeometry width="50" height="50" relative="1" as="geometry">
            <mxPoint x="190" y="309" as="sourcePoint" />
            <mxPoint x="198" y="230" as="targetPoint" />
          </mxGeometry>
        </mxCell>
        <mxCell id="Q2ZwilokbGeyutuiUH2V-21" value="車" style="rounded=0;whiteSpace=wrap;html=1;" vertex="1" parent="1">
          <mxGeometry x="640" y="80" width="50" height="60" as="geometry" />
        </mxCell>
        <mxCell id="Q2ZwilokbGeyutuiUH2V-22" value="エンジン&lt;span style=&quot;color: rgba(0, 0, 0, 0); font-family: monospace; font-size: 0px; text-align: start; text-wrap-mode: nowrap;&quot;&gt;%3CmxGraphModel%3E%3Croot%3E%3CmxCell%20id%3D%220%22%2F%3E%3CmxCell%20id%3D%221%22%20parent%3D%220%22%2F%3E%3CmxCell%20id%3D%222%22%20value%3D%22%E9%A3%9B%E8%A1%8C%E6%A9%9F%22%20style%3D%22rounded%3D0%3BwhiteSpace%3Dwrap%3Bhtml%3D1%3B%22%20vertex%3D%221%22%20parent%3D%221%22%3E%3CmxGeometry%20x%3D%22270%22%20y%3D%22240%22%20width%3D%22120%22%20height%3D%2260%22%20as%3D%22geometry%22%2F%3E%3C%2FmxCell%3E%3C%2Froot%3E%3C%2FmxGraphModel%3E&lt;/span&gt;" style="rounded=0;whiteSpace=wrap;html=1;" vertex="1" parent="1">
          <mxGeometry x="520" y="200" width="120" height="60" as="geometry" />
        </mxCell>
        <mxCell id="Q2ZwilokbGeyutuiUH2V-23" value="ボディ" style="rounded=0;whiteSpace=wrap;html=1;" vertex="1" parent="1">
          <mxGeometry x="690" y="200" width="120" height="60" as="geometry" />
        </mxCell>
        <mxCell id="Q2ZwilokbGeyutuiUH2V-24" value="ハンドル" style="rounded=0;whiteSpace=wrap;html=1;" vertex="1" parent="1">
          <mxGeometry x="580" y="330" width="120" height="60" as="geometry" />
        </mxCell>
        <mxCell id="Q2ZwilokbGeyutuiUH2V-25" value="ライト" style="rounded=0;whiteSpace=wrap;html=1;" vertex="1" parent="1">
          <mxGeometry x="760" y="330" width="120" height="60" as="geometry" />
        </mxCell>
        <mxCell id="Q2ZwilokbGeyutuiUH2V-26" value="" style="endArrow=diamondThin;endFill=0;endSize=24;html=1;rounded=0;entryX=0.25;entryY=1;entryDx=0;entryDy=0;exitX=0.417;exitY=0;exitDx=0;exitDy=0;exitPerimeter=0;" edge="1" parent="1" source="Q2ZwilokbGeyutuiUH2V-22" target="Q2ZwilokbGeyutuiUH2V-21">
          <mxGeometry width="160" relative="1" as="geometry">
            <mxPoint x="380" y="280" as="sourcePoint" />
            <mxPoint x="540" y="280" as="targetPoint" />
          </mxGeometry>
        </mxCell>
        <mxCell id="Q2ZwilokbGeyutuiUH2V-28" value="" style="endArrow=diamondThin;endFill=0;endSize=24;html=1;rounded=0;entryX=0.75;entryY=1;entryDx=0;entryDy=0;exitX=0.5;exitY=0;exitDx=0;exitDy=0;" edge="1" parent="1" source="Q2ZwilokbGeyutuiUH2V-23" target="Q2ZwilokbGeyutuiUH2V-21">
          <mxGeometry width="160" relative="1" as="geometry">
            <mxPoint x="630" y="200" as="sourcePoint" />
            <mxPoint x="713" y="140" as="targetPoint" />
          </mxGeometry>
        </mxCell>
        <mxCell id="Q2ZwilokbGeyutuiUH2V-29" value="" style="endArrow=diamondThin;endFill=0;endSize=24;html=1;rounded=0;entryX=0.25;entryY=1;entryDx=0;entryDy=0;exitX=0.75;exitY=0;exitDx=0;exitDy=0;" edge="1" parent="1" source="Q2ZwilokbGeyutuiUH2V-24" target="Q2ZwilokbGeyutuiUH2V-23">
          <mxGeometry width="160" relative="1" as="geometry">
            <mxPoint x="762" y="280" as="sourcePoint" />
            <mxPoint x="690" y="220" as="targetPoint" />
          </mxGeometry>
        </mxCell>
        <mxCell id="Q2ZwilokbGeyutuiUH2V-30" value="" style="endArrow=diamondThin;endFill=0;endSize=24;html=1;rounded=0;entryX=0.75;entryY=1;entryDx=0;entryDy=0;exitX=0.5;exitY=0;exitDx=0;exitDy=0;" edge="1" parent="1" source="Q2ZwilokbGeyutuiUH2V-25" target="Q2ZwilokbGeyutuiUH2V-23">
          <mxGeometry width="160" relative="1" as="geometry">
            <mxPoint x="720" y="360" as="sourcePoint" />
            <mxPoint x="770" y="290" as="targetPoint" />
          </mxGeometry>
        </mxCell>
        <mxCell id="Q2ZwilokbGeyutuiUH2V-32" value="図書カード" style="rounded=0;whiteSpace=wrap;html=1;" vertex="1" parent="1">
          <mxGeometry x="70" y="730" width="120" height="60" as="geometry" />
        </mxCell>
        <mxCell id="Q2ZwilokbGeyutuiUH2V-33" value="氏名、住所、電話番号、電子メールアドレス" style="rounded=0;whiteSpace=wrap;html=1;" vertex="1" parent="1">
          <mxGeometry x="300" y="930" width="140" height="60" as="geometry" />
        </mxCell>
        <mxCell id="Q2ZwilokbGeyutuiUH2V-34" value="ID" style="rounded=0;whiteSpace=wrap;html=1;" vertex="1" parent="1">
          <mxGeometry x="20" y="930" width="120" height="60" as="geometry" />
        </mxCell>
        <mxCell id="Q2ZwilokbGeyutuiUH2V-35" value="利用者" style="rounded=0;whiteSpace=wrap;html=1;" vertex="1" parent="1">
          <mxGeometry x="70" y="600" width="120" height="60" as="geometry" />
        </mxCell>
        <mxCell id="Q2ZwilokbGeyutuiUH2V-36" value="" style="endArrow=diamondThin;endFill=0;endSize=24;html=1;rounded=0;entryX=0.5;entryY=1;entryDx=0;entryDy=0;exitX=0.5;exitY=0;exitDx=0;exitDy=0;" edge="1" parent="1" source="Q2ZwilokbGeyutuiUH2V-32" target="Q2ZwilokbGeyutuiUH2V-35">
          <mxGeometry width="160" relative="1" as="geometry">
            <mxPoint x="710" y="340" as="sourcePoint" />
            <mxPoint x="760" y="270" as="targetPoint" />
          </mxGeometry>
        </mxCell>
        <mxCell id="Q2ZwilokbGeyutuiUH2V-37" value="" style="endArrow=diamondThin;endFill=0;endSize=24;html=1;rounded=0;entryX=0.25;entryY=1;entryDx=0;entryDy=0;exitX=0.5;exitY=0;exitDx=0;exitDy=0;" edge="1" parent="1" source="Q2ZwilokbGeyutuiUH2V-34" target="Q2ZwilokbGeyutuiUH2V-32">
          <mxGeometry width="160" relative="1" as="geometry">
            <mxPoint x="130" y="750" as="sourcePoint" />
            <mxPoint x="130" y="680" as="targetPoint" />
          </mxGeometry>
        </mxCell>
        <mxCell id="Q2ZwilokbGeyutuiUH2V-38" value="パスワード" style="rounded=0;whiteSpace=wrap;html=1;" vertex="1" parent="1">
          <mxGeometry x="160" y="930" width="120" height="60" as="geometry" />
        </mxCell>
        <mxCell id="Q2ZwilokbGeyutuiUH2V-39" value="" style="endArrow=diamondThin;endFill=0;endSize=24;html=1;rounded=0;entryX=0.5;entryY=1;entryDx=0;entryDy=0;exitX=0.5;exitY=0;exitDx=0;exitDy=0;" edge="1" parent="1" source="Q2ZwilokbGeyutuiUH2V-38" target="Q2ZwilokbGeyutuiUH2V-32">
          <mxGeometry width="160" relative="1" as="geometry">
            <mxPoint x="110" y="860" as="sourcePoint" />
            <mxPoint x="160" y="800" as="targetPoint" />
          </mxGeometry>
        </mxCell>
        <mxCell id="Q2ZwilokbGeyutuiUH2V-40" value="図書" style="rounded=0;whiteSpace=wrap;html=1;" vertex="1" parent="1">
          <mxGeometry x="390" y="600" width="120" height="60" as="geometry" />
        </mxCell>
        <mxCell id="Q2ZwilokbGeyutuiUH2V-42" value="貸し出し予約" style="rounded=0;whiteSpace=wrap;html=1;" vertex="1" parent="1">
          <mxGeometry x="310" y="730" width="120" height="60" as="geometry" />
        </mxCell>
        <mxCell id="Q2ZwilokbGeyutuiUH2V-43" value="期限" style="rounded=0;whiteSpace=wrap;html=1;" vertex="1" parent="1">
          <mxGeometry x="-210" y="930" width="120" height="60" as="geometry" />
        </mxCell>
        <mxCell id="Q2ZwilokbGeyutuiUH2V-44" value="" style="endArrow=diamondThin;endFill=0;endSize=24;html=1;rounded=0;entryX=0.75;entryY=1;entryDx=0;entryDy=0;exitX=0.25;exitY=0;exitDx=0;exitDy=0;" edge="1" parent="1" source="Q2ZwilokbGeyutuiUH2V-33" target="Q2ZwilokbGeyutuiUH2V-32">
          <mxGeometry width="160" relative="1" as="geometry">
            <mxPoint x="220" y="860" as="sourcePoint" />
            <mxPoint x="160" y="800" as="targetPoint" />
          </mxGeometry>
        </mxCell>
        <mxCell id="Q2ZwilokbGeyutuiUH2V-45" value="書名、著者" style="rounded=0;whiteSpace=wrap;html=1;" vertex="1" parent="1">
          <mxGeometry x="530" y="720" width="120" height="60" as="geometry" />
        </mxCell>
        <mxCell id="Q2ZwilokbGeyutuiUH2V-47" value="" style="endArrow=none;html=1;rounded=0;exitX=1;exitY=0.5;exitDx=0;exitDy=0;entryX=0;entryY=0.5;entryDx=0;entryDy=0;" edge="1" parent="1" source="Q2ZwilokbGeyutuiUH2V-35" target="Q2ZwilokbGeyutuiUH2V-40">
          <mxGeometry width="50" height="50" relative="1" as="geometry">
            <mxPoint x="380" y="760" as="sourcePoint" />
            <mxPoint x="430" y="710" as="targetPoint" />
          </mxGeometry>
        </mxCell>
        <mxCell id="Q2ZwilokbGeyutuiUH2V-48" value="検索" style="text;html=1;align=center;verticalAlign=middle;whiteSpace=wrap;rounded=0;" vertex="1" parent="1">
          <mxGeometry x="260" y="600" width="60" height="30" as="geometry" />
        </mxCell>
        <mxCell id="Q2ZwilokbGeyutuiUH2V-50" value="" style="endArrow=diamondThin;endFill=0;endSize=24;html=1;rounded=0;entryX=0.75;entryY=1;entryDx=0;entryDy=0;exitX=0.5;exitY=0;exitDx=0;exitDy=0;" edge="1" parent="1" source="Q2ZwilokbGeyutuiUH2V-45" target="Q2ZwilokbGeyutuiUH2V-40">
          <mxGeometry width="160" relative="1" as="geometry">
            <mxPoint x="450" y="940" as="sourcePoint" />
            <mxPoint x="490" y="900" as="targetPoint" />
          </mxGeometry>
        </mxCell>
        <mxCell id="Q2ZwilokbGeyutuiUH2V-52" value="貸し出し中か" style="rounded=0;whiteSpace=wrap;html=1;" vertex="1" parent="1">
          <mxGeometry x="670" y="720" width="120" height="60" as="geometry" />
        </mxCell>
        <mxCell id="Q2ZwilokbGeyutuiUH2V-53" value="" style="endArrow=diamondThin;endFill=0;endSize=24;html=1;rounded=0;entryX=1;entryY=1;entryDx=0;entryDy=0;exitX=0.25;exitY=0;exitDx=0;exitDy=0;" edge="1" parent="1" source="Q2ZwilokbGeyutuiUH2V-52" target="Q2ZwilokbGeyutuiUH2V-40">
          <mxGeometry width="160" relative="1" as="geometry">
            <mxPoint x="600" y="720" as="sourcePoint" />
            <mxPoint x="490" y="660" as="targetPoint" />
          </mxGeometry>
        </mxCell>
        <mxCell id="Q2ZwilokbGeyutuiUH2V-54" value="所在棚" style="rounded=0;whiteSpace=wrap;html=1;" vertex="1" parent="1">
          <mxGeometry x="605" y="820" width="120" height="60" as="geometry" />
        </mxCell>
        <mxCell id="Q2ZwilokbGeyutuiUH2V-55" value="借りている本" style="rounded=0;whiteSpace=wrap;html=1;" vertex="1" parent="1">
          <mxGeometry x="-210" y="780" width="120" height="60" as="geometry" />
        </mxCell>
        <mxCell id="Q2ZwilokbGeyutuiUH2V-56" value="" style="endArrow=diamondThin;endFill=0;endSize=24;html=1;rounded=0;entryX=0;entryY=0.25;entryDx=0;entryDy=0;exitX=0.5;exitY=0;exitDx=0;exitDy=0;" edge="1" parent="1" source="Q2ZwilokbGeyutuiUH2V-55" target="Q2ZwilokbGeyutuiUH2V-32">
          <mxGeometry width="160" relative="1" as="geometry">
            <mxPoint x="90" y="950" as="sourcePoint" />
            <mxPoint x="110" y="810" as="targetPoint" />
          </mxGeometry>
        </mxCell>
        <mxCell id="Q2ZwilokbGeyutuiUH2V-57" value="" style="endArrow=diamondThin;endFill=0;endSize=24;html=1;rounded=0;exitX=0.5;exitY=0;exitDx=0;exitDy=0;" edge="1" parent="1" source="Q2ZwilokbGeyutuiUH2V-43" target="Q2ZwilokbGeyutuiUH2V-55">
          <mxGeometry width="160" relative="1" as="geometry">
            <mxPoint x="50" y="780" as="sourcePoint" />
            <mxPoint x="270" y="790" as="targetPoint" />
          </mxGeometry>
        </mxCell>
        <mxCell id="Q2ZwilokbGeyutuiUH2V-58" value="書名、著者" style="rounded=0;whiteSpace=wrap;html=1;" vertex="1" parent="1">
          <mxGeometry x="-360" y="930" width="120" height="60" as="geometry" />
        </mxCell>
        <mxCell id="Q2ZwilokbGeyutuiUH2V-59" value="" style="endArrow=diamondThin;endFill=0;endSize=24;html=1;rounded=0;exitX=0.679;exitY=0.031;exitDx=0;exitDy=0;entryX=0.25;entryY=1;entryDx=0;entryDy=0;exitPerimeter=0;" edge="1" parent="1" source="Q2ZwilokbGeyutuiUH2V-58" target="Q2ZwilokbGeyutuiUH2V-55">
          <mxGeometry width="160" relative="1" as="geometry">
            <mxPoint x="-150" y="940" as="sourcePoint" />
            <mxPoint x="-150" y="850" as="targetPoint" />
          </mxGeometry>
        </mxCell>
        <mxCell id="Q2ZwilokbGeyutuiUH2V-60" value="" style="endArrow=diamondThin;endFill=0;endSize=24;html=1;rounded=0;entryX=0.5;entryY=1;entryDx=0;entryDy=0;exitX=0.5;exitY=0;exitDx=0;exitDy=0;" edge="1" parent="1" source="Q2ZwilokbGeyutuiUH2V-54" target="Q2ZwilokbGeyutuiUH2V-40">
          <mxGeometry width="160" relative="1" as="geometry">
            <mxPoint x="710" y="720" as="sourcePoint" />
            <mxPoint x="520" y="660" as="targetPoint" />
          </mxGeometry>
        </mxCell>
      </root>
    </mxGraphModel>
  </diagram>
</mxfile>

